<svg height="512" viewBox="0 0 16 16" width="512" xmlns="http://www.w3.org/2000/svg" xmlns:xlink="http://www.w3.org/1999/xlink"><defs><path id="path-1" d="m2.25592.488155c.488155.488155.488155 1.27961 0 1.76777-.488155.488155-1.27961.488155-1.76777 0-.488155-.488155-.488155-1.27961 0-1.76777.488155-.488155 1.27961-.488155 1.76777 0"/></defs><use transform="translate(3.878 4.878)" xlink:href="#path-1"/><use transform="translate(9.378 4.878)" xlink:href="#path-1"/><path d="m8 0c-4.41113 0-8 3.58887-8 8s3.58887 8 8 8 8-3.58887 8-8-3.58887-8-8-8zm0 14c-3.30859 0-6-2.69141-6-6s2.69141-6 6-6 6 2.69141 6 6-2.69141 6-6 6z"/><path d="m3.5 0c-1.93298 0-3.5 1.34314-3.5 3h7c0-1.65686-1.56702-3-3.5-3z" transform="translate(4.5 9)"/></svg>